<?xml version="1.0" encoding="utf-8"?>
<!--https://cobhopcreative.co.uk/services/web-design-hamilton-->
<!-- Generator: Adobe Illustrator 25.2.3, SVG Export Plug-In . SVG Version: 6.00 Build 0)  -->
<svg version="1.1" id="Layer_1" xmlns="http://www.w3.org/2000/svg" xmlns:xlink="http://www.w3.org/1999/xlink" x="0px" y="0px"
	 viewBox="0 0 500 500" style="enable-background:new 0 0 500 500;" xml:space="preserve">
<style type="text/css">
	.st0{fill-rule:evenodd;clip-rule:evenodd;fill:#202249;}
	.st1{fill-rule:evenodd;clip-rule:evenodd;fill:url(#SVGID_1_);}
	.st2{opacity:0.3;fill-rule:evenodd;clip-rule:evenodd;fill:#1E2353;}
	.st3{fill-rule:evenodd;clip-rule:evenodd;fill:url(#SVGID_2_);}
	.st4{opacity:0.3;fill-rule:evenodd;clip-rule:evenodd;fill:#955CF1;}
	.st5{fill-rule:evenodd;clip-rule:evenodd;fill:url(#SVGID_3_);}
	.st6{fill-rule:evenodd;clip-rule:evenodd;fill:url(#SVGID_4_);}
	.st7{fill-rule:evenodd;clip-rule:evenodd;fill:#4A9FF8;}
	.st8{fill-rule:evenodd;clip-rule:evenodd;fill:#5858F0;}
	.st9{opacity:0.5;fill-rule:evenodd;clip-rule:evenodd;fill:url(#SVGID_5_);}
	.st10{opacity:0.5;fill-rule:evenodd;clip-rule:evenodd;fill:url(#SVGID_6_);}
	.st11{opacity:0.5;fill-rule:evenodd;clip-rule:evenodd;fill:url(#SVGID_7_);}
	.st12{fill-rule:evenodd;clip-rule:evenodd;fill:#D0E7FF;}
	.st13{fill-rule:evenodd;clip-rule:evenodd;fill:url(#SVGID_8_);}
	.st14{opacity:0.5;fill-rule:evenodd;clip-rule:evenodd;fill:#FFFCF1;}
	.st15{opacity:0.5;fill-rule:evenodd;clip-rule:evenodd;fill:url(#SVGID_9_);}
	.st16{fill-rule:evenodd;clip-rule:evenodd;fill:url(#SVGID_10_);}
	.st17{fill-rule:evenodd;clip-rule:evenodd;fill:#FFFCF1;}
	.st18{fill-rule:evenodd;clip-rule:evenodd;fill:#FFFFFF;}
	.st19{fill-rule:evenodd;clip-rule:evenodd;fill:url(#SVGID_11_);}
	.st20{fill-rule:evenodd;clip-rule:evenodd;fill:url(#SVGID_12_);}
	.st21{fill-rule:evenodd;clip-rule:evenodd;fill:#FFDB59;}
	.st22{opacity:0.2;fill-rule:evenodd;clip-rule:evenodd;fill:url(#SVGID_13_);}
	.st23{fill-rule:evenodd;clip-rule:evenodd;fill:url(#SVGID_14_);}
	.st24{opacity:0.2;fill-rule:evenodd;clip-rule:evenodd;fill:url(#SVGID_15_);}
	.st25{fill-rule:evenodd;clip-rule:evenodd;fill:url(#SVGID_16_);}
	.st26{fill-rule:evenodd;clip-rule:evenodd;fill:url(#SVGID_17_);}
	.st27{fill-rule:evenodd;clip-rule:evenodd;fill:url(#SVGID_18_);}
	.st28{opacity:0.35;fill-rule:evenodd;clip-rule:evenodd;fill:#3469C0;}
	.st29{fill-rule:evenodd;clip-rule:evenodd;fill:url(#SVGID_19_);}
	.st30{fill-rule:evenodd;clip-rule:evenodd;fill:url(#SVGID_20_);}
	.st31{fill-rule:evenodd;clip-rule:evenodd;fill:#FFA698;}
	.st32{fill-rule:evenodd;clip-rule:evenodd;fill:#FF9080;}
	.st33{opacity:0.5;fill-rule:evenodd;clip-rule:evenodd;fill:url(#SVGID_21_);}
	.st34{fill-rule:evenodd;clip-rule:evenodd;fill:url(#SVGID_22_);}
	.st35{opacity:0.2;fill-rule:evenodd;clip-rule:evenodd;fill:url(#SVGID_23_);}
	.st36{fill-rule:evenodd;clip-rule:evenodd;fill:url(#SVGID_24_);}
	.st37{opacity:0.2;fill-rule:evenodd;clip-rule:evenodd;fill:#955CF1;}
	.st38{fill-rule:evenodd;clip-rule:evenodd;fill:url(#SVGID_25_);}
	.st39{fill-rule:evenodd;clip-rule:evenodd;fill:#6D6AFD;}
	.st40{fill-rule:evenodd;clip-rule:evenodd;fill:#B269EB;}
	.st41{fill-rule:evenodd;clip-rule:evenodd;fill:url(#SVGID_26_);}
	.st42{fill-rule:evenodd;clip-rule:evenodd;fill:url(#SVGID_27_);}
	.st43{fill-rule:evenodd;clip-rule:evenodd;fill:url(#SVGID_28_);}
	.st44{fill-rule:evenodd;clip-rule:evenodd;fill:url(#SVGID_29_);}
	.st45{fill-rule:evenodd;clip-rule:evenodd;fill:#FFA495;}
	.st46{fill-rule:evenodd;clip-rule:evenodd;fill:#193161;}
	.st47{fill-rule:evenodd;clip-rule:evenodd;fill:url(#SVGID_30_);}
	.st48{fill-rule:evenodd;clip-rule:evenodd;fill:url(#SVGID_31_);}
	.st49{fill-rule:evenodd;clip-rule:evenodd;fill:url(#SVGID_32_);}
	.st50{fill-rule:evenodd;clip-rule:evenodd;fill:url(#SVGID_33_);}
	.st51{fill-rule:evenodd;clip-rule:evenodd;fill:url(#SVGID_34_);}
	.st52{fill-rule:evenodd;clip-rule:evenodd;fill:#FF8978;}
	.st53{fill-rule:evenodd;clip-rule:evenodd;fill:url(#SVGID_35_);}
	.st54{fill-rule:evenodd;clip-rule:evenodd;fill:url(#SVGID_36_);}
	.st55{opacity:0.35;fill-rule:evenodd;clip-rule:evenodd;fill:#6266D7;}
	.st56{fill-rule:evenodd;clip-rule:evenodd;fill:url(#SVGID_37_);}
	.st57{fill-rule:evenodd;clip-rule:evenodd;fill:url(#SVGID_38_);}
	.st58{fill-rule:evenodd;clip-rule:evenodd;fill:#FFB49C;}
	.st59{fill-rule:evenodd;clip-rule:evenodd;fill:#FF9D8E;}
	.st60{fill-rule:evenodd;clip-rule:evenodd;fill:#726CDE;}
	.st61{fill-rule:evenodd;clip-rule:evenodd;fill:#562E65;}
	.st62{fill-rule:evenodd;clip-rule:evenodd;fill:url(#SVGID_39_);}
	.st63{fill-rule:evenodd;clip-rule:evenodd;fill:url(#SVGID_40_);}
	.st64{fill-rule:evenodd;clip-rule:evenodd;fill:url(#SVGID_41_);}
</style>
<g>
	<g>
		<g>
			<path class="st0" d="M301.8,114.8c0.3,0.2,0.6,0.3,1.1,0.5c1.4,3.4,1.9,4.4,1.7,4.7c-0.2,0.3-0.2,0.1-0.3,0.8
				c-0.2,0.9,3.1,4.9,3.6,6.2c0.5,1.1,0.5,2.2,0.1,3.4c-0.7,2.1-1.9,4.1-3.5,5.9c-1.3,1.4-2.7,2.4-3.9,2.1c-1.5-0.3-1.3-1.7-1-3.1
				c0.1-0.5,1-1.6,0.9-2c-0.4-2.7-2.4-5.1-3.8-7.4c-1.2-1.2-3.3-2.4-4.5-3.7c-1.7-1.9-2-4,0.1-5.2c0.7-0.4,2.3-2.3,3.2-2.2
				C297,115,299.7,113.6,301.8,114.8z"/>
			<linearGradient id="SVGID_1_" gradientUnits="userSpaceOnUse" x1="270.8" y1="74.9852" x2="270.793" y2="117.928">
				<stop  offset="0" style="stop-color:#324179"/>
				<stop  offset="1" style="stop-color:#0C124D"/>
			</linearGradient>
			<path class="st1" d="M245.6,107.1c-1.1,3.1-0.2,5.8,2.2,7c0,0,0,0,0,0c0.1,0,0.2,0.1,0.3,0.1c0.3,0.1,0.5,0.2,0.8,0.3
				c3,0.9,7.4,1.7,10.1,2.2c10.8,2.1,26.9,3.3,34.4,6.2c3-2.2,3.8-6.2,1.9-8.6c-8.2-3.9-19.4-9-24-10.8c-1.1-0.4-2.4-0.6-3.9-0.7
				c7-6.3,14.3-13.1,17.2-18.8c2-4.1,2.4-9.8,3.8-13.3c-11.3,3.3-13.5-3.5-15.6-5.9c-1.8,2.6-1.7,2.1-3.6,4.9
				c-6.1,9.5-15.1,22.9-21.3,32.9C247,104,246,105.6,245.6,107.1z"/>
			<path class="st2" d="M282.7,108.3c-4.6-2.1-8.8-3.9-11.3-4.8c-1.1-0.4-2.4-0.6-3.9-0.7c7-6.3,14.3-13.1,17.2-18.8
				c2-4.1,2.4-9.8,3.8-13.3c-3.2,0.9-5.7,1.1-7.6,0.7l0.3,2.2c-8.8,8.7-24.7,29-26.2,42.2c5.4,1.2,20,3.1,22.3,3.4
				C277.9,115.3,280.5,112.1,282.7,108.3L282.7,108.3z M274.7,67.3c-0.7-1-1.3-1.9-1.8-2.6c-1.1,1.7-1.5,2.1-2.1,2.9L274.7,67.3z"/>
			<path class="st0" d="M281.2,158.8c1.6,2.2-2.7,13.3-3.8,15.6c-0.9,2.1-0.6,3.3,1.6,3.4c1.7,0,4.5-2.4,6.1-4c3.1-3,3.3-6,4.2-7.3
				l1.1-0.3c0.8-0.4,3.1-3.4,3.2-4.6c-0.2-0.8-0.7-2.1-1.2-3.1c-1.7-3.1-2.1-1.8-4.3-3.7C285.6,156.6,287.4,157.3,281.2,158.8z"/>
			<linearGradient id="SVGID_2_" gradientUnits="userSpaceOnUse" x1="277.9496" y1="77.7259" x2="277.9205" y2="150.8758">
				<stop  offset="0" style="stop-color:#324179"/>
				<stop  offset="1" style="stop-color:#0C124D"/>
			</linearGradient>
			<path class="st3" d="M260.9,120.8c4.7,9,16.3,29.4,20.4,38.4c3.6,0.8,7.3-1.3,7.6-4.2c-2.6-8.7-6.9-23-9-27.5
				c-1.4-3-4-7-6.4-10.1c6.9-9.6,17.8-24.8,21-33.7c4.3-12.1-0.6-19-7.2-22.8c-2.3-1.4-4.9,0.8-6.1-0.6c-2.8,5.5-5.4,13-7,19.7
				c-2.3,9.4-13.3,29.3-14.1,36c-0.1,1.4,0.1,2.7,0.7,3.8C260.7,120.1,260.7,120.4,260.9,120.8z"/>
		</g>
		<path class="st4" d="M445.7,479.7L128.4,301.2c-4-1.8-9.9-3.5-13.8-1.1l-10.1,6.1c-2,1.2-8.7,5.3-4.2,7.7
			c13.1,7.1,306.1,172.8,319.4,180c2.5,1.4,6.2,1.9,10,1.5c3.8-0.3,7.8-1.4,10.9-3.3l4-2.5c2.8-1.8,4.4-3.7,4.6-5.5
			C449.3,482.5,448.1,480.8,445.7,479.7z"/>
		<g>
			<linearGradient id="SVGID_3_" gradientUnits="userSpaceOnUse" x1="312.3615" y1="150.1409" x2="266.3059" y2="429.6719">
				<stop  offset="0" style="stop-color:#D1E8FF"/>
				<stop  offset="1" style="stop-color:#EAEFFF"/>
			</linearGradient>
			<path class="st5" d="M164.8,10.4c-2.2-1.2-4.8-1.7-7.2-0.8l-5.4,2.1c-1.9,10.1,276.5,473.1,279,475.6l4.8-1.8
				c3.1-1.2,4.8-4.5,5.3-7.7l40.5-276.2c0,0,0,0,0,0c0.7-4.6-0.7-9.5-3.3-13.4c-1.4-2.1-3.2-4-5.4-5.2L164.8,10.4z"/>
			<linearGradient id="SVGID_4_" gradientUnits="userSpaceOnUse" x1="339.0941" y1="97.2398" x2="231.6192" y2="441.5273">
				<stop  offset="0" style="stop-color:#6D6AFE"/>
				<stop  offset="1" style="stop-color:#3FB0F7"/>
			</linearGradient>
			<path class="st6" d="M467.8,185L159.5,12.5c-5.8-3.2-11.4-0.1-12.4,6.9l-40.5,276.2c-1,7,2.8,15.4,8.7,18.6l308.3,172.6
				c5.8,3.2,11.4,0.1,12.4-6.9l40.5-276.2C477.5,196.6,473.6,188.3,467.8,185z"/>
			<g>
				<path class="st7" d="M467.8,185L159.5,12.5c-5.8-3.2-11.4-0.1-12.4,6.9l-1.4,9.3l329.4,184.4l1.4-9.4
					C477.5,196.6,473.6,188.3,467.8,185z"/>
				<g>
					<path class="st8" d="M157.5,19.3c2.3,0.5,4.1,3.3,4,6.2c-0.1,2.9-2.1,4.8-4.5,4.3c-2.3-0.5-4.1-3.3-4-6.2
						C153.2,20.7,155.2,18.8,157.5,19.3z"/>
					<path class="st8" d="M168.2,25.4c2.3,0.5,4.1,3.3,4,6.2c-0.1,2.9-2.1,4.8-4.5,4.3c-2.3-0.5-4.1-3.3-4-6.2
						C163.9,26.8,165.9,24.9,168.2,25.4z"/>
					<path class="st8" d="M179.7,32.2c2.3,0.5,4.1,3.3,4,6.2c-0.1,2.9-2.1,4.8-4.5,4.3c-2.3-0.5-4.1-3.3-4-6.2
						C175.4,33.5,177.4,31.6,179.7,32.2z"/>
				</g>
			</g>
		</g>
		<linearGradient id="SVGID_5_" gradientUnits="userSpaceOnUse" x1="388.541" y1="322.1765" x2="415.665" y2="265.1308">
			<stop  offset="0" style="stop-color:#965CF2"/>
			<stop  offset="1" style="stop-color:#FF8ADC"/>
		</linearGradient>
		<path class="st9" d="M430.3,280.8l-55.4-30.4c-3.2-1.8-6.4-2-9-1c-3.4,1.3-5.9,4.7-6.6,9.7l-6.3,45c-1.3,8.8,3.6,19.3,10.9,23.4
			l55.4,30.4c7.3,4.1,14.3,0.2,15.6-8.7l6.3-45C442.5,295.3,437.6,284.9,430.3,280.8z"/>
		<linearGradient id="SVGID_6_" gradientUnits="userSpaceOnUse" x1="385.0292" y1="221.2771" x2="435.2773" y2="147.8757">
			<stop  offset="0" style="stop-color:#965CF2"/>
			<stop  offset="1" style="stop-color:#FF8ADC"/>
		</linearGradient>
		<path class="st10" d="M349.2,122.4l121.4,59.2l-3.2,3.3l-11.7,81.5c-1.2,8.4-7.5,12.1-14.2,8.3l-113.7-65l-9.9-22L349.2,122.4z"/>
		<g>
			<linearGradient id="SVGID_7_" gradientUnits="userSpaceOnUse" x1="148.5844" y1="296.1023" x2="180.0887" y2="227.3904">
				<stop  offset="0" style="stop-color:#965CF2"/>
				<stop  offset="1" style="stop-color:#FF8ADC"/>
			</linearGradient>
			<path class="st11" d="M196.7,248.1l-75.1-41.6l-2.5,3.8l-12.3,84l77.8,43.1c8.2,4.6,16.1,0.2,17.5-9.7l6.9-53.3
				C210.4,264.4,204.9,252.6,196.7,248.1z"/>
			<g>
				<g>
					<path class="st12" d="M193.4,266.5l-9,58.9l1.4,0.2l3.9-1.5c4.3-1.7,6.5-6.1,7.1-10.4l6.6-51.1c0,0,0,0,0,0
						c0.9-6.3-1-12.8-4.5-18.1c-1.9-2.8-4.3-5.4-7.3-7.1L36.1,151.1c-3-1.7-6.4-2.3-9.7-1.1l-3.4,1.3c-1.7,0.6-2.3,1.2-2.2,1.3
						C22.3,167.7,195.7,251,193.4,266.5z"/>
					<linearGradient id="SVGID_8_" gradientUnits="userSpaceOnUse" x1="110.1918" y1="221.2656" x2="97.7121" y2="257.0408">
						<stop  offset="0" style="stop-color:#1C8EF4"/>
						<stop  offset="1" style="stop-color:#00CFDD"/>
					</linearGradient>
					<path class="st13" d="M187.8,238.9L32.2,152.7c-3.5-1.9-6.8-2.2-9.7-1.1c-3.6,1.4-6.3,5.1-7.1,10.4l-6.6,51.1
						c-1.4,9.5,3.9,20.8,11.7,25.2l155.6,86.3c7.9,4.4,15.4,0.2,16.8-9.3l6.6-51.1C200.9,254.6,195.7,243.3,187.8,238.9z"/>
				</g>
				<g>
					<path class="st14" d="M185.9,254.8L78.5,195.8c-0.8-0.5-1.6-0.5-2.3-0.3c-0.9,0.3-1.5,1.2-1.7,2.5l-0.6,3.6
						c-0.3,2.3,0.9,5,2.8,6l107.4,59.1c1.9,1,3.7,0,4-2.2l0.6-3.6C189.1,258.6,187.8,255.9,185.9,254.8L185.9,254.8z M126.1,268.7
						c1.9,1,3.1,3.7,2.8,6l-0.6,3.6c-0.3,2.3-2.1,3.3-4,2.2l-54-29.1c-1.9-1-3.1-3.7-2.8-6l0.6-3.6c0.2-1.3,0.8-2.2,1.7-2.5
						c0.7-0.3,1.5-0.2,2.3,0.3L126.1,268.7L126.1,268.7z M182.7,276.8c1.9,1,3.1,3.7,2.8,6l-0.6,3.6c-0.3,2.3-2.1,3.3-4,2.2
						L73.5,229.5c-1.9-1-3.1-3.7-2.8-6l0.6-3.6c0.2-1.3,0.8-2.2,1.7-2.5c0.7-0.3,1.5-0.2,2.3,0.3L182.7,276.8z"/>
					<path class="st14" d="M44.3,194.7c-5.1-2.8-10.5,1-10.4,8.3c0,3.8,1.6,7.7,4.2,10.2c0.7,0.6,1.4,1.2,2.1,1.5
						c5.1,2.8,10.4-1,10.4-8.3c0-3.8-1.6-7.7-4.1-10.2C45.7,195.6,45,195.1,44.3,194.7L44.3,194.7z M39.4,218.2
						c-0.9-0.5-1.9-1.2-2.8-2.1c-3.4-3.3-5.6-8.6-5.6-13.7c-0.1-9.9,7.2-15,14-11.2c0.9,0.5,1.9,1.2,2.8,2.1
						c3.4,3.3,5.6,8.6,5.6,13.7C53.4,216.9,46.2,222,39.4,218.2L39.4,218.2z M62.7,209.8c1.2,0.7,1.9,2.4,1.6,3.9l-1.2,5.8
						c-0.3,1.5-1.5,2.1-2.7,1.5l-0.6-0.3c-0.9-0.5-1.9-0.2-2.4,0.7c-0.3,0.6-0.7,1.1-1.1,1.6c-0.6,0.8-0.7,2.1-0.2,3.3l0.3,0.8
						c0.6,1.5,0.2,3.2-0.8,3.8l-4.2,2.3c-0.5,0.3-1.1,0.2-1.7-0.1c-0.6-0.3-1-0.9-1.4-1.6l-0.3-0.8c-0.3-0.7-0.8-1.3-1.3-1.6
						c-0.3-0.2-0.7-0.3-1-0.3c-0.6,0-1.2,0-1.8-0.1c-1-0.1-1.8,0.6-2,1.7l-0.2,0.8c-0.3,1.5-1.5,2.1-2.7,1.5l-4.7-2.6
						c-1.2-0.7-1.9-2.4-1.6-3.9l0.2-0.8c0.2-1.1-0.1-2.4-0.9-3.3c-0.5-0.6-1-1.1-1.4-1.7c-0.3-0.3-0.6-0.6-0.9-0.8
						c-0.6-0.3-1.2-0.3-1.7-0.1l-0.5,0.3c-0.5,0.3-1.1,0.2-1.7-0.1c-0.6-0.3-1-0.9-1.4-1.6l-2.4-5.9c-0.6-1.5-0.2-3.2,0.8-3.8
						l0.6-0.3c0.8-0.4,1.2-1.6,1.1-2.8c-0.1-0.8-0.2-1.6-0.2-2.4c-0.1-1.2-0.7-2.4-1.6-2.9l-0.6-0.3c-1.2-0.7-1.9-2.4-1.6-3.9
						l1.2-5.8c0.3-1.5,1.5-2.1,2.7-1.5l0.6,0.3c0.9,0.5,1.9,0.2,2.4-0.7c0.3-0.6,0.7-1.1,1.1-1.6c0.6-0.8,0.7-2.1,0.2-3.3l-0.3-0.8
						c-0.6-1.5-0.2-3.2,0.8-3.8l4.2-2.3c0.5-0.3,1.1-0.2,1.7,0.1c0.6,0.3,1,0.9,1.4,1.6l0.3,0.8c0.3,0.7,0.8,1.3,1.3,1.6
						c0.3,0.2,0.7,0.3,1,0.3c0.6,0,1.2,0,1.8,0.1c1,0.1,1.7-0.6,2-1.7l0.2-0.8c0.3-1.5,1.5-2.1,2.7-1.5l4.7,2.6
						c1.2,0.7,1.9,2.4,1.6,3.9l-0.2,0.8c-0.2,1.1,0.1,2.4,0.9,3.3c0.5,0.6,1,1.1,1.4,1.7c0.3,0.3,0.6,0.6,0.9,0.8
						c0.6,0.3,1.2,0.3,1.7,0.1l0.6-0.3c0.5-0.3,1.1-0.2,1.7,0.1c0.6,0.3,1,0.9,1.4,1.6l2.4,5.9c0.6,1.5,0.2,3.2-0.8,3.8l-0.6,0.3
						c-0.8,0.4-1.2,1.6-1.1,2.8c0.1,0.8,0.2,1.6,0.2,2.4c0.1,1.2,0.7,2.4,1.6,2.9L62.7,209.8z"/>
				</g>
			</g>
		</g>
		<g>
			<linearGradient id="SVGID_9_" gradientUnits="userSpaceOnUse" x1="152.5993" y1="121.8822" x2="178.1145" y2="36.5467">
				<stop  offset="0" style="stop-color:#965CF2"/>
				<stop  offset="1" style="stop-color:#FF8ADC"/>
			</linearGradient>
			<path class="st15" d="M179.2,53.2L145.6,37l-13.3,82.9l-1.7,11.7l34.9,18.8c6.1,3.4,11.9,0.1,12.9-7.2l9.7-70.7
				C189.3,65.3,185.2,56.6,179.2,53.2z"/>
			<g>
				<path class="st12" d="M175.1,72.9l-10.5,67.6l1.1,0.1l3-1.2c3.3-1.3,5-4.7,5.5-8l8.6-61.6c0,0,0,0,0,0c0.7-4.8-0.8-9.9-3.4-13.9
					c-1.4-2.2-3.3-4.2-5.6-5.4l-64.2-34.9c-2.3-1.3-4.9-1.8-7.4-0.8l-2.6,1c-1.3,0.5-1.7,0.9-1.7,1C99,28.4,176.8,61.1,175.1,72.9z"
					/>
				<linearGradient id="SVGID_10_" gradientUnits="userSpaceOnUse" x1="145.2756" y1="35.9692" x2="116.1919" y2="131.4976">
					<stop  offset="0" style="stop-color:#6D6AFE"/>
					<stop  offset="1" style="stop-color:#3FB0F7"/>
				</linearGradient>
				<path class="st16" d="M170.7,51.8l-64.2-34.9c-2.7-1.5-5.3-1.7-7.4-0.8c-2.8,1.1-4.9,3.9-5.5,8L85,85.6c-1.1,7.3,3,16,9,19.3
					l64.2,34.9c6.1,3.4,11.9,0.1,12.9-7.2l8.6-61.6C180.9,63.8,176.8,55.1,170.7,51.8z"/>
				<path class="st17" d="M158.8,123.4L94.3,88.8c-1.5-0.8-2.9,0-3.2,1.9c-0.3,1.8,0.7,3.9,2.2,4.7l64.5,34.6c1.5,0.8,2.9,0,3.2-1.9
					C161.3,126.3,160.3,124.2,158.8,123.4L158.8,123.4z M161.7,104.6c1.5,0.8,2.5,2.9,2.2,4.7c-0.3,1.8-1.7,2.7-3.2,1.9L96.2,76.6
					c-1.5-0.8-2.5-2.9-2.2-4.7c0.3-1.8,1.7-2.7,3.2-1.9L161.7,104.6L161.7,104.6z M168.4,62.1l-64.5-34.6c-1.5-0.8-2.9,0-3.2,1.8
					l-0.7,4.6c-0.3,1.8,0.7,3.9,2.2,4.7l64.5,34.6c1.5,0.8,2.9,0,3.2-1.8l0.7-4.6C170.8,65,169.8,62.9,168.4,62.1L168.4,62.1z
					 M164.6,86c1.5,0.8,2.5,2.9,2.2,4.7c-0.3,1.9-1.7,2.7-3.2,1.9L99.1,57.9c-1.5-0.8-2.5-2.9-2.2-4.7c0.3-1.9,1.7-2.7,3.2-1.9
					L164.6,86z"/>
			</g>
		</g>
		<g>
			<path class="st12" d="M427.4,301.8l-7.6,47.1l1.2,0.1l3.2-1.3c3.6-1.4,5.4-5.1,5.9-8.7l5.7-40.5c0,0,0,0,0,0
				c0.7-5.3-0.8-10.7-3.7-15.1c-1.6-2.4-3.6-4.5-6.1-5.9l-49.9-27.4c-2.5-1.4-5.4-1.9-8.1-0.9l-2.9,1.1c-1.4,0.5-1.9,1-1.9,1.1
				C364.6,264,429.3,288.9,427.4,301.8z"/>
			<path class="st18" d="M422.7,278.7l-49.9-27.4c-2.9-1.6-5.7-1.8-8.1-0.9c-3,1.2-5.3,4.2-6,8.7l-5.7,40.5c-1.2,8,3.2,17.4,9.8,21
				l49.9,27.4c6.6,3.7,12.9,0.2,14.1-7.8l5.6-40.5C433.7,291.8,429.2,282.4,422.7,278.7z"/>
			<linearGradient id="SVGID_11_" gradientUnits="userSpaceOnUse" x1="390.768" y1="303.6975" x2="399.3006" y2="287.1252">
				<stop  offset="0" style="stop-color:#965CF2"/>
				<stop  offset="1" style="stop-color:#FF8ADC"/>
			</linearGradient>
			<path class="st19" d="M400.9,281.6c0.4,0.7,0.5,1.5,0.4,2.3c-0.1,0.6-0.4,1.6-0.9,3l-10.6,29.5c-0.3,1-0.7,1.7-0.9,2.3
				c-0.3,0.5-0.6,0.9-1,1c-0.4,0.2-0.9,0.1-1.5-0.4c-1.6-1-2.3-2.4-2.1-4.1c0.1-0.4,0.3-1.5,0.9-3.1l10.6-29.5
				c0.5-1.6,1-2.6,1.4-3.1c0.4-0.5,1.1-0.4,1.9,0.1C400,280.2,400.6,280.8,400.9,281.6L400.9,281.6z M403.8,289.2l-1,8.2l15.7,18.2
				l-17.6-2.2l-1,8.2l25.3,2l0.8-7L403.8,289.2L403.8,289.2z M359.5,283l22.3,27.4l1-8.2l-15.6-18.3l17.5,2.4l1-8.3l-25.3-2
				L359.5,283z"/>
		</g>
		<g>
			<g>
				<path class="st18" d="M231.6,283.4c0.9-6.1,5.6-8.8,10.4-6l72.3,40.7c4.9,2.8,8.1,10,7.2,16.2l-9.6,65.4
					c-0.9,6.1-5.6,8.8-10.4,6L229.2,365c-4.9-2.8-8.1-10-7.2-16.2L231.6,283.4z"/>
				<g>
					<g>
						<linearGradient id="SVGID_12_" gradientUnits="userSpaceOnUse" x1="288.0702" y1="328.6772" x2="267.5413" y2="360.6151">
							<stop  offset="0" style="stop-color:#FF66BC"/>
							<stop  offset="0.56" style="stop-color:#FF8ADC"/>
							<stop  offset="1" style="stop-color:#FFBBA8"/>
						</linearGradient>
						<polygon class="st20" points="240.4,350.1 265.6,315.2 270.5,352.2 282.8,338.8 290,378.4 						"/>
						<path class="st21" d="M281.9,316.7c2.7,0.5,4.7,3.7,4.5,7c-0.2,3.3-2.5,5.6-5.2,5.1c-2.7-0.5-4.7-3.7-4.5-7
							C276.9,318.4,279.2,316.2,281.9,316.7z"/>
					</g>
					<linearGradient id="SVGID_13_" gradientUnits="userSpaceOnUse" x1="293.5839" y1="340.1041" x2="240.0557" y2="342.4027">
						<stop  offset="0" style="stop-color:#FF66BC"/>
						<stop  offset="0.56" style="stop-color:#FF8ADC"/>
						<stop  offset="1" style="stop-color:#FFBBA8"/>
					</linearGradient>
					<path class="st22" d="M237.5,292.8c0.7-5.1,4.6-7.3,8.7-5l60,33.9c4,2.3,6.7,8.3,6,13.4l-8,54.4c-0.7,5.1-4.6,7.3-8.7,5
						l-60-33.9c-4-2.3-6.7-8.3-6-13.4L237.5,292.8z"/>
				</g>
			</g>
			<g>
				<path class="st18" d="M329.1,340c0.9-6.1,5.6-8.8,10.4-6l72.3,40.7c4.9,2.8,8.1,10,7.2,16.2l-9.6,65.4c-0.9,6.1-5.6,8.8-10.4,6
					l-72.3-40.7c-4.9-2.8-8.1-10-7.2-16.2L329.1,340z"/>
				<g>
					<g>
						<linearGradient id="SVGID_14_" gradientUnits="userSpaceOnUse" x1="366.9816" y1="409.191" x2="376.8584" y2="382.048">
							<stop  offset="0" style="stop-color:#965CF2"/>
							<stop  offset="1" style="stop-color:#FF8ADC"/>
						</linearGradient>
						<polygon class="st23" points="337.9,406.7 363.1,371.8 368,408.8 380.3,395.5 387.5,435.1 						"/>
						<path class="st21" d="M379.4,373.4c2.7,0.5,4.7,3.7,4.5,7c-0.2,3.3-2.5,5.6-5.2,5.1c-2.7-0.5-4.7-3.7-4.5-7
							C374.4,375.1,376.7,372.8,379.4,373.4z"/>
					</g>
					<linearGradient id="SVGID_15_" gradientUnits="userSpaceOnUse" x1="369.5488" y1="420.4896" x2="365.9408" y2="352.8448">
						<stop  offset="0" style="stop-color:#965CF2"/>
						<stop  offset="1" style="stop-color:#FF8ADC"/>
					</linearGradient>
					<path class="st24" d="M335,349.4c0.7-5.1,4.6-7.3,8.7-5l60,33.9c4,2.3,6.7,8.3,6,13.4l-8,54.4c-0.7,5.1-4.6,7.3-8.7,5l-60-33.9
						c-4-2.3-6.7-8.3-6-13.4L335,349.4z"/>
				</g>
			</g>
		</g>
		<g>
			<linearGradient id="SVGID_16_" gradientUnits="userSpaceOnUse" x1="236.1647" y1="9.2624" x2="236.2333" y2="57.766">
				<stop  offset="0" style="stop-color:#5A2D68"/>
				<stop  offset="1" style="stop-color:#22043D"/>
			</linearGradient>
			<path class="st25" d="M219.9,11.3c-6.4,3.8-3.3,12.5,2.5,21.7c8.3,13.1-11.8,27.8,15.5,35.3c-2.8-8,9-10.9,14.8-21.8
				c6.7-12.6,3-25.2-5.6-35.9C240,1.8,227.2,1.9,219.9,11.3z"/>
			<g>
				<linearGradient id="SVGID_17_" gradientUnits="userSpaceOnUse" x1="237.5221" y1="92.0978" x2="235.4421" y2="91.3587">
					<stop  offset="0" style="stop-color:#FF8A78"/>
					<stop  offset="1" style="stop-color:#FFA799"/>
				</linearGradient>
				<path class="st26" d="M232.6,93.9l1.6,5.9c0.5,1.3,0.8,1.6,2.6,0.8c1-0.5,0.7-2.6,0.4-4.1c-0.3-1.7-0.1-3.1,0.1-3.7
					c0.2-0.7,0.7-1.2,1.1-1.6c1.1-0.9,2.4-1.5,1.6-4.2c-0.4-1.5-0.3-2.5-0.3-4l-3.8-0.3c0.1,3.4-1.4,5.7-3,8.5
					C232.1,92.7,232.3,92.4,232.6,93.9z"/>
				<g>
					<linearGradient id="SVGID_18_" gradientUnits="userSpaceOnUse" x1="238.526" y1="75.587" x2="238.2355" y2="33.9389">
						<stop  offset="0" style="stop-color:#965CF2"/>
						<stop  offset="1" style="stop-color:#FF8ADC"/>
					</linearGradient>
					<path class="st27" d="M246.1,56.3l0-0.2c0-0.3,0-0.5-0.1-0.8c-1-6.4-2.9-17.3-4.5-23c-2.7-9.9-11.1-6.5-11.1-0.6
						c0.1,5.6,5.3,17.7,6.5,22.9c-0.4,3.8-2,22.9-1.5,26.2c0.1,0.6,0.4,1,0.4,1.7c0,0.5-0.2,0.7-0.3,1.4c1.5,0.2,3,0.4,4.5,0.8
						c0.1-0.4,0.1-1.1,0.2-1.5c0.3-0.7,0.9-1.1,1.2-1.7c1.5-3,3.9-18.7,4.5-23.8C246.1,57.4,246.1,56.9,246.1,56.3z"/>
					<path class="st28" d="M245,62.3c0.6-1.4,1.2-5.6,1.2-7.5c0-3.9-1.5-7.2-2-9.7l-13.7-13.7c0.1,2.6,3.1,9.4,4.3,14.4
						C236.7,53.7,240.9,60.5,245,62.3z"/>
				</g>
			</g>
			<linearGradient id="SVGID_19_" gradientUnits="userSpaceOnUse" x1="265.0284" y1="66.0528" x2="255.0896" y2="34.4433">
				<stop  offset="0" style="stop-color:#965CF2"/>
				<stop  offset="1" style="stop-color:#FF8ADC"/>
			</linearGradient>
			<path class="st29" d="M287.5,63.3c-1.9,6.4-11,11.4-20.1,9.4c-2.2-2.4-2.8-1.7-4.8-3.6c-1.8-1.8-4-4.2-7.2-7.4
				c-1.7-2.7-8.6-3.8-11.6-5c-3.4-1.3-6.5-4.1-7.9-9.6c-0.7-2.6-3.7-10.7-4.7-13.4c-3.1-7.8,3.6-10.7,8.2-7.8
				c2.9,1.2,9.3,2.7,12.5,3.3c1.9,0.4,3.1,0.6,5.6,0.8c3.8,0.4,7.9,3.1,10.8,5.5C276.1,41.9,286.8,54.5,287.5,63.3z"/>
			<g>
				<linearGradient id="SVGID_20_" gradientUnits="userSpaceOnUse" x1="240.5068" y1="30.1321" x2="243.0216" y2="33.1892">
					<stop  offset="0" style="stop-color:#FF8A78"/>
					<stop  offset="1" style="stop-color:#FFA799"/>
				</linearGradient>
				<path class="st30" d="M241.8,22.8c0.8,3.4,2.8,6.6,5.4,9.1c-1,3.4-7.5,5.9-9.6,3.6c-0.2-0.5-0.4-1.5-0.6-1.8
					c-0.3-1-0.7-1.9-1-2.6L241.8,22.8z"/>
				<g>
					<path class="st31" d="M222.7,18.2c0.3,2.6,1.2,4.8,3.4,7.1c0.6,0.6,0.8,1,1,1.6c0.9,3.1,1.5,3.8,3.5,5.2c2,1.4,2.7,2.4,3.8,2.5
						c1.1,0.1,2.2-0.5,3-1.1c1.7-1.2,3.6-4.6,4.5-6.8c0.7-1.6,0.3-2.1-0.2-3.6c0.5-2.9-1.5-3.1-2.2-2.7c-1.9,1-0.6,3.1-1.3,4.3
						C231.8,26.1,224.9,20.2,222.7,18.2z"/>
					<path class="st32" d="M222.7,18.2c3.7,6.2,11.8,7.7,15.7,6.4C231.8,26.1,224.9,20.2,222.7,18.2z"/>
				</g>
			</g>
			<path class="st28" d="M265.8,71.1c-0.1,0-0.1,0-0.2,0c-1-0.7-1.7-0.7-3.1-2.1c-1.8-1.8-4-4.2-7.2-7.4c-0.9-1.4-3.1-2.4-5.5-3.1
				c0.4-6.4,0.2-20.9,2.3-22.8c2.9-2.6,6.9-4.4,10.2-1C268.6,41.2,262.4,65,265.8,71.1z"/>
			<g>
				<polygon class="st7" points="257,79.7 253,64.8 255.8,62.3 280.8,76.4 278.4,79 267.6,86.3 				"/>
				<path class="st12" d="M253.1,64.8l-1.8-5.8c10.4,5.8,20.8,11.5,31.2,17.3l-4,2.7L253.1,64.8z"/>
			</g>
		</g>
		<g>
			<linearGradient id="SVGID_21_" gradientUnits="userSpaceOnUse" x1="276.1447" y1="255.2102" x2="227.7206" y2="64.7143">
				<stop  offset="0" style="stop-color:#965CF2"/>
				<stop  offset="1" style="stop-color:#FF8ADC"/>
			</linearGradient>
			<path class="st33" d="M202,100.1c1.6-11.9,10.7-17.1,20.2-11.5l98.7,57.6c9.5,5.6,16,19.9,14.4,31.8l-15,113.8
				c-1.6,11.9-10.7,17.1-20.2,11.5l-98.7-57.6c-9.6-5.6-16-19.9-14.4-31.8L202,100.1z"/>
			<g>
				<path class="st12" d="M205.5,99.4c0.2-1.3,0.4-7.1,2-8.2c2.1-1.6,5.9-3.9,7-4.2c2.9-0.8,6.3-0.3,9.8,1.8l92.2,53.4
					c8.9,5.2,14.9,18.5,13.3,29.6l-14,105.8c-0.5,3.9-1.9,7-3.8,9.2c-1.3,1.5-4.4,3.5-6.9,4.9c-2.6,1.4-6.4-2.4-8-3.4l-92.2-53.4
					c-8.9-5.2-14.9-18.5-13.4-29.6L205.5,99.4z"/>
				<path class="st18" d="M202.2,101.7c1.5-11.1,9.9-15.9,18.8-10.6l91.7,53.5c8.9,5.2,14.9,18.5,13.3,29.6l-14,105.8
					c-1.5,11.1-9.9,15.9-18.8,10.6L201.6,237c-8.9-5.2-14.9-18.5-13.4-29.6L202.2,101.7z"/>
				<g>
					<linearGradient id="SVGID_22_" gradientUnits="userSpaceOnUse" x1="279.3798" y1="118.5825" x2="262.1055" y2="143.1417">
						<stop  offset="0" style="stop-color:#6D6AFE"/>
						<stop  offset="1" style="stop-color:#3FB0F7"/>
					</linearGradient>
					<path class="st34" d="M202.2,101.7c1.5-11.1,9.9-15.9,18.8-10.6l91.7,53.5c8.9,5.2,14.9,18.5,13.3,29.6l-1.4,10.5l-123.9-72.3
						L202.2,101.7z"/>
					<g>
						<path class="st18" d="M217,102.1c2,0.5,3.6,2.9,3.4,5.4c-0.1,2.5-1.8,4.1-3.9,3.7c-2-0.5-3.6-2.9-3.4-5.4
							C213.2,103.3,214.9,101.6,217,102.1z"/>
						<path class="st18" d="M227.7,108.8c2,0.5,3.6,2.9,3.4,5.4c-0.1,2.5-1.8,4.1-3.9,3.7c-2-0.5-3.6-2.9-3.4-5.4
							C224,110,225.7,108.4,227.7,108.8z"/>
						<path class="st18" d="M238.5,115.6c2,0.5,3.6,2.9,3.4,5.4c-0.1,2.5-1.8,4.1-3.9,3.7c-2-0.5-3.6-2.9-3.4-5.4
							C234.8,116.7,236.5,115.1,238.5,115.6z"/>
					</g>
				</g>
				<g>
					<g>
						<g>
							<linearGradient id="SVGID_23_" gradientUnits="userSpaceOnUse" x1="223.934" y1="149.8002" x2="219.8979" y2="155.5105">
								<stop  offset="0" style="stop-color:#6D6AFE"/>
								<stop  offset="1" style="stop-color:#3FB0F7"/>
							</linearGradient>
							<path class="st35" d="M221.7,133.4c9.4,2.2,16.5,13.4,16,25c-0.5,11.6-8.6,19.2-17.9,17c-9.4-2.2-16.5-13.4-16-25
								C204.3,138.7,212.3,131.1,221.7,133.4z"/>
							<linearGradient id="SVGID_24_" gradientUnits="userSpaceOnUse" x1="227.223" y1="149.4336" x2="214.854" y2="158.8123">
								<stop  offset="0" style="stop-color:#6D6AFE"/>
								<stop  offset="1" style="stop-color:#3FB0F7"/>
							</linearGradient>
							<path class="st36" d="M221.2,143c5,1.2,8.9,7.2,8.6,13.5c-0.3,6.3-4.6,10.4-9.7,9.2c-5-1.2-8.9-7.2-8.6-13.5
								C211.8,146,216.2,141.8,221.2,143z"/>
						</g>
						<g>
							<path class="st37" d="M243.3,155.9c0.3-2.5,2.2-3.5,4.2-2.3l59.9,34.5c2,1.2,3.3,4.2,3,6.6l-0.6,4.9
								c-0.3,2.5-2.2,3.5-4.2,2.3l-59.9-34.5c-2-1.2-3.3-4.2-3-6.6L243.3,155.9z"/>
							<path class="st37" d="M240.9,173.8c0.2-1.5,1.3-2.1,2.5-1.4l35.4,20.4c1.2,0.7,1.9,2.5,1.7,3.9l-0.4,2.9
								c-0.2,1.5-1.3,2.1-2.5,1.4l-35.4-20.4c-1.2-0.7-1.9-2.5-1.7-3.9L240.9,173.8z"/>
						</g>
					</g>
					<g>
						<path class="st37" d="M200.9,178.4c0.2-1.8,1.6-2.5,3-1.7l103.5,59.4c1.4,0.9,2.4,3,2.2,4.8l-0.3,2.4c-0.2,1.8-1.6,2.5-3,1.7
							l-103.5-59.4c-1.4-0.9-2.4-3-2.2-4.8L200.9,178.4z"/>
						<path class="st37" d="M198.7,195.8c0.2-1.8,1.6-2.5,3-1.7l103.5,59.4c1.4,0.9,2.4,3,2.2,4.8l-0.3,2.4c-0.2,1.8-1.6,2.5-3,1.7
							L200.6,203c-1.4-0.9-2.4-3-2.2-4.8L198.7,195.8z"/>
						<path class="st37" d="M196.5,212.4c0.2-1.8,1.6-2.5,3-1.7L303,270.1c1.4,0.9,2.4,3,2.2,4.8l-0.3,2.4c-0.2,1.8-1.6,2.5-3,1.7
							l-103.5-59.4c-1.4-0.9-2.4-3-2.2-4.8L196.5,212.4z"/>
					</g>
				</g>
			</g>
		</g>
		<g>
			<g>
				<path class="st12" d="M330.2,89.8c0.3-2.3-1.2-4.1-0.2-5.6c1.1-1.6,4.8-2.8,6.3-3.4c2.3-0.8,4.9-0.5,7.6,1L454,144.7
					c6.4,3.7,10.7,13.2,9.6,21.3l-12.4,86.4c-0.6,4-2.3,6.8-4.7,8.3c-1.5,0.9-5.5,2.6-7.3,2.4c-1.3-0.2-0.3-2-1.7-2.7l-110.1-62.9
					c-6.4-3.7-10.7-13.2-9.6-21.3L330.2,89.8z"/>
				<linearGradient id="SVGID_25_" gradientUnits="userSpaceOnUse" x1="395.5115" y1="145.4585" x2="377.2533" y2="206.3183">
					<stop  offset="0" style="stop-color:#6D6AFE"/>
					<stop  offset="1" style="stop-color:#3FB0F7"/>
				</linearGradient>
				<path class="st38" d="M326.9,91.1c1.2-8.1,7.3-11.7,13.7-8l110.1,62.9c6.4,3.7,10.7,13.2,9.6,21.3l-12.4,86.4
					c-1.2,8.1-7.3,11.7-13.7,8l-110.1-62.9c-6.4-3.7-10.7-13.2-9.6-21.3L326.9,91.1z"/>
			</g>
			<g>
				<path class="st39" d="M318.3,181.5c0.1-0.7,0.6-1,1.2-0.7l122.1,70c0.6,0.3,0.9,1.2,0.8,1.9l-0.3,2.1c-0.1,0.7-0.6,1-1.2,0.7
					l-122.1-70c-0.6-0.3-0.9-1.2-0.8-1.9L318.3,181.5z"/>
				<path class="st40" d="M318.4,181.5c0.1-0.7,0.6-1,1.1-0.6l49.3,28.2c0.5,0.3,0.9,1.1,0.8,1.8l-0.3,2.1c-0.1,0.7-0.6,1-1.1,0.6
					l-49.3-28.2c-0.5-0.3-0.9-1.1-0.8-1.8L318.4,181.5z"/>
			</g>
			<g>
				<linearGradient id="SVGID_26_" gradientUnits="userSpaceOnUse" x1="381.5751" y1="175.1576" x2="389.9529" y2="149.3952">
					<stop  offset="0" style="stop-color:#965CF2"/>
					<stop  offset="1" style="stop-color:#FF8ADC"/>
				</linearGradient>
				<path class="st41" d="M366.7,140c0.3-1.9,1.7-2.8,3.3-1.9l33.9,19.4c1.5,0.9,2.5,3.1,2.3,5.1l-4.6,32.3
					c-0.3,1.9-1.7,2.8-3.3,1.9l-33.9-19.4c-1.5-0.9-2.5-3.1-2.3-5.1L366.7,140z"/>
				<linearGradient id="SVGID_27_" gradientUnits="userSpaceOnUse" x1="380.2473" y1="173.9422" x2="387.8832" y2="160.9371">
					<stop  offset="0" style="stop-color:#6D6AFE"/>
					<stop  offset="1" style="stop-color:#3FB0F7"/>
				</linearGradient>
				<path class="st42" d="M386,154c-5.9-3.4-11.5-0.1-12.5,7.3c-1.1,7.4,2.8,16.1,8.7,19.4c5.9,3.4,11.5,0.1,12.5-7.3
					C395.8,166.1,391.9,157.4,386,154z"/>
				<polygon class="st18" points="380.6,157.6 378.7,170.9 390.1,171.2 				"/>
			</g>
		</g>
		<g>
			<linearGradient id="SVGID_28_" gradientUnits="userSpaceOnUse" x1="245.3329" y1="98.5101" x2="243.592" y2="97.7051">
				<stop  offset="0" style="stop-color:#FF8A78"/>
				<stop  offset="1" style="stop-color:#FFA799"/>
			</linearGradient>
			<path class="st43" d="M248.7,89.3c-1,1.6-0.5,5.1-0.8,6.7c-0.2,1.3-1,3.8-1.5,4.8c-0.2,0.4-6.6,6.1-7,5.8
				c-0.8-0.6-1.4-5.1-0.3-6.4c1.1-1.3,2-2.6,2.2-3.6c0.2-1.1,0.1-4.6,0.6-5.2c1-1.2,2.1-1.6,2.6-3.2L248.7,89.3z"/>
			<linearGradient id="SVGID_29_" gradientUnits="userSpaceOnUse" x1="255.8524" y1="81.2823" x2="252.1551" y2="41.5131">
				<stop  offset="0" style="stop-color:#965CF2"/>
				<stop  offset="1" style="stop-color:#FF8ADC"/>
			</linearGradient>
			<path class="st44" d="M261.2,67.6c0.1-0.3,0.2-0.7,0.2-1.1c1.7-6.9,3.4-18.6,3.1-25.5c-0.2-5.2-2.7-9.6-8.8-7.9
				c-1.9,0.5-4,1.9-4.3,4.4c-0.3,3,0.1,7.9,0.4,12.9c0.2,4,0.2,11.2,0.4,14.2c0,0.1-0.1,0.2-0.1,0.3c-2,3.9-6.5,16.6-7.5,20.7
				c-0.2,0.7,0,1.4,0,1.9c0,0.4-0.2,0.9-0.5,1.5c1.4,1.2,2.6,1.8,4.2,2.2c0.2-0.4,0.6-1.1,0.9-1.5c0.3-0.4,1.5-0.8,2-1.4
				c2.5-3,9.2-16.9,10-20.6C261.2,67.7,261.2,67.7,261.2,67.6z"/>
		</g>
		<g>
			<g>
				<g>
					<g>
						<path class="st18" d="M184.1,420.1c1.1,0,4.7-3.5,8.2-1.7c4.2,2.1,12.1,0.2,16,1.2c0.7,0.2,2.1-0.4,2.4,0.1
							c0.9,1.5,1.7,3.8-0.4,5.3c-1.6,1.1-4.9,2.6-7.1,3.3c-2.3,0.8-6.3,2.1-8.9,2.5c-2.9,0.5-4.3,0.7-5.4,1.5
							c-1.6,0.8-3.2,1.1-4.1,1c-1.9-0.3-4.2-1.4-5.2-3.7c-0.3-0.7-0.3-3.8,0-5.8c0.3-1.6,1.2-3.4,1.9-5.1L184.1,420.1z"/>
						<path class="st45" d="M192.6,412.7c-1.3,3.2-0.9,8-4,9.7c-2.1,1.1-5.4,1.1-6.8-2.1c-0.8-1.8,0.3-4.9,0-8.9L192.6,412.7z"/>
						<path class="st46" d="M193.4,417.6c2.4,0.7,9,0.2,13.2,0.6c1.8,0.1,3.4,0.1,4.2,1.8c0.8,1.5,0.4,2.8-1.4,4
							c-1.6,1.1-4.2,2.4-6.4,3.1c-2.3,0.8-6.3,2.1-8.9,2.5c-2.9,0.5-4.3,0.7-5.4,1.5c-1.6,0.8-3.2,1.1-4.1,1
							c-1.9-0.3-4.2-1.7-5.2-3.9c-0.3-0.7-0.3-3.6,0-5.6c0.1-0.4,0.2-0.8,0.3-1.2c0.3-3.1,1.4-4.4,2.3-3.9c1.3,0.7,1.8,2.1,2.4,3.1
							c0.4,0.9,1.1,1.5,1.8,1.7c1.6,0.5,3.1-0.4,4-1.8c0.5-0.9,0.8-2,1.1-3.2c0-0.1,0-0.2,0-0.3c0.3-2.7,1.6-2.5,1.4-1.9
							C192.6,415.8,192.7,417,193.4,417.6z"/>
						<path class="st18" d="M210,419.5c0,1.1,1.6,1.2,1.1,3c0.8-0.8-0.3-3-0.8-3.3C210.1,419.1,210,419,210,419.5z"/>
					</g>
					<g>
						<path class="st18" d="M211.2,409.2c1-0.4,3.3-4.9,7.1-4.4c1.6,0.2,4.1-0.2,6.6-0.9c4-1.1,9.7-4.8,10.6-4.2
							c2.1,1.3,2.3,3.6,0.8,5.8c-1.1,1.6-3.1,3.7-4.9,5.1c-1.9,1.6-4.6,4-6.9,5.3c-2.2,1.2-3,1.1-4.5,3.3c-1.2,1.3-2.6,2.1-3.5,2.2
							c-2.3,0.5-5.7-1-6.9-2.6c-0.8-2.5-2.1-4.8-1.2-8.6L211.2,409.2z"/>
						<path class="st45" d="M216.6,398.6c-0.1,3.4,2.1,7.8-0.2,10.5c-1.5,1.8-4.6,3-7.1,0.5c-1.4-1.4-1.6-4.6-3.2-8.3L216.6,398.6z"
							/>
						<path class="st46" d="M223.9,402.8c0.2-0.1,0.5-0.1,0.7-0.2c4-1.1,9.4-3.9,10.4-3.3c2.1,1.3,2.5,2.8,1,4.9
							c-1.1,1.6-3.1,3.7-4.9,5.1c-1.9,1.6-4.6,4-6.9,5.3c-2.2,1.2-3,1.1-4.5,3.3c-1.2,1.3-2.6,2.1-3.5,2.2c-2.3,0.5-5.8-1-7-2.6
							c-0.6-1.9-1.4-3.6-1.4-5.9c-0.3-3-0.1-4.6,1.2-4.6c2.5,0.1,3.5,1.4,4.5,2c2.2,1.4,3.7-0.4,4-2.6c0.1-0.9,0-1.9-0.2-2.9
							c0-0.1-0.1-0.2-0.1-0.3c-0.7-2.7,0.6-2.9,0.6-2.3c0.1,1.4,0.9,2.2,2,2.3C221.1,403.5,222.8,402.9,223.9,402.8z"/>
						<path class="st18" d="M234.7,399.6c0.4,1,1.9,0.4,2.3,2.2c0.4-1-1.6-2.5-2.1-2.6C234.7,399.2,234.5,399.2,234.7,399.6z"/>
					</g>
					<g>
						<linearGradient id="SVGID_30_" gradientUnits="userSpaceOnUse" x1="210.5338" y1="320.0793" x2="197.6587" y2="381.676">
							<stop  offset="0" style="stop-color:#40457F"/>
							<stop  offset="1" style="stop-color:#1E2353"/>
						</linearGradient>
						<path class="st47" d="M214.3,306.2c0.9,9.9,5.9,41.6,4.5,50.3c-2.1,13.1-1.5,28.9-1.5,42.8c-0.4,5.8-8.4,8.9-10.7,5.2
							c-1.9-12.4-4.5-23.3-5.6-30.2c-1.2-7.7-0.8-17.1,1.1-22.2c-0.8-5.5-4.6-19.8-7.7-29.7c-1.1-3.6-7.6-15.1-0.9-26.6L214.3,306.2
							z"/>
						<linearGradient id="SVGID_31_" gradientUnits="userSpaceOnUse" x1="213.3688" y1="398.8702" x2="208.5341" y2="405.8068">
							<stop  offset="0" style="stop-color:#3773B9"/>
							<stop  offset="1" style="stop-color:#003C76"/>
						</linearGradient>
						<path class="st48" d="M217.4,395.5c0,1,0,2.6,0,3.6c-0.4,5.8-8.5,9-10.8,5.3c-0.1-0.9-0.3-1.8-0.5-2.7
							C209.2,405.1,215.4,400.7,217.4,395.5z"/>
						<path class="st2" d="M218.9,350.6c-2.6,13.1-10,30.6-14,43.8c-2.1-11.3-7.4-30.5-2.8-42.3c-0.5-3.2-1.9-9.2-3.6-15.6
							c3.5-6.6,0.2-11.9,1.8-21.3c9.3-1.6-4.7-12.9,14.9-1C216.9,328.3,218.6,337.2,218.9,350.6z"/>
					</g>
					<g>
						<linearGradient id="SVGID_32_" gradientUnits="userSpaceOnUse" x1="222.0108" y1="327.0339" x2="178.1047" y2="386.9167">
							<stop  offset="0" style="stop-color:#40457F"/>
							<stop  offset="1" style="stop-color:#1E2353"/>
						</linearGradient>
						<path class="st49" d="M213.6,363c-5.3,12.1-15.2,35.8-20.4,50.7c-2.7,3.9-12.4,3.5-12.4-0.1c2.1-12.4,4.6-31.6,9.1-42.5
							c1.4-3.3,6.4-11.4,8.2-13.7c1.4-5.5,3.2-20.3,4.5-28.3c-1.2-6.6-6.6-17.7,3.7-27.3c4.1,2.9,17,4.8,22.8,1.5
							C230.1,329.4,223.6,340.3,213.6,363z"/>
						<linearGradient id="SVGID_33_" gradientUnits="userSpaceOnUse" x1="188.6088" y1="413.0126" x2="181.3014" y2="414.8806">
							<stop  offset="0" style="stop-color:#3773B9"/>
							<stop  offset="1" style="stop-color:#003C76"/>
						</linearGradient>
						<path class="st50" d="M194.3,411.1c-0.2,0.6-0.7,2-0.9,2.6c-2.8,4.1-12.8,3.6-12.7-0.1c0.1-0.6,0.2-1.2,0.3-1.9
							C183.3,414.1,190.5,414.1,194.3,411.1z"/>
					</g>
				</g>
				<g>
					<g>
						<linearGradient id="SVGID_34_" gradientUnits="userSpaceOnUse" x1="234.3508" y1="182.4848" x2="243.5947" y2="169.2729">
							<stop  offset="0" style="stop-color:#FF8A78"/>
							<stop  offset="1" style="stop-color:#FFA799"/>
						</linearGradient>
						<path class="st51" d="M246.4,161.1c-0.4,0.8-0.7,1.6-1.1,2.4l-1.6,3.3c-0.3-1.6-1.6-2.2-2.6-1.4c-0.3,0.2-0.6,0.6-0.8,1.1
							c-0.2-0.4-1.4-1.4-3.1,1c-1-0.1-1.6,0.3-2,1.2c-0.3,0.5-0.5,1.1-0.7,1.7c-0.3,0.9-0.5,1.6-0.5,2.3c0,1.6,0.1,3.3,0,5.2
							c0,2-2.4,4.6-3.6,6.1l7.6,2.4c1.2-1.5,1.8-2.5,3-3.7c1.2-1.2,2.7-1.4,3.8-2.3c0.6-0.5,1-1.2,2.1-2.7c0.9-1.3,1.4-2.6,2.2-4
							c0.8-1.4,0.8-1.1,0.9-2.7c0.1-1.2,0.5-2.5,0.6-3.2c-1.6-0.8-2.8,1.1-2.8,3c-0.9,0.5-1.5,1.7-1.7,2.3c-1.2-1.6-0.5-2.3,0-4.4
							c0.8-1.4,1.3-2.7,1.8-4.2c0.2-0.6,0.5-1.3,0.7-2c0.4-1.2-0.1-2-0.5-2.2C247.8,159.9,247,160,246.4,161.1z"/>
						<path class="st52" d="M249.5,167.5c-1.1,0.2-1.9,1.7-1.9,3.2c-0.8,0.5-1.4,1.6-1.6,2.2c0.5-0.6,1.6-1.8,2-2
							C248.1,169.4,248.6,168.2,249.5,167.5L249.5,167.5z M243.7,166.5l-0.1,0.3c-0.1-0.4-0.2-0.7-0.4-1c0,1.1-0.7,1.9-1.1,2.4
							C243.1,167.8,243.5,167.2,243.7,166.5L243.7,166.5z M240.2,166.4c-0.1-0.1-0.2-0.3-0.4-0.4c-0.2,1-0.4,1.4-0.9,2.2
							C239.6,167.7,240,167.1,240.2,166.4L240.2,166.4z M237.2,167.4L237.2,167.4c-0.2,0-0.4,0-0.5,0c-0.1,1.1-0.4,1.7-0.9,2.4
							C236.6,169.1,237,168.5,237.2,167.4z"/>
					</g>
					<linearGradient id="SVGID_35_" gradientUnits="userSpaceOnUse" x1="215.0916" y1="215.5134" x2="225.7781" y2="235.5651">
						<stop  offset="0" style="stop-color:#A77EF7"/>
						<stop  offset="1" style="stop-color:#5E65D6"/>
					</linearGradient>
					<path class="st53" d="M217.7,205c3.8-6.7,6.8-15,12.1-21.7c0.4-0.6,1.5-1,1.9-1.6c0.6-0.9,1.1-1.7,1.7-2.5
						c2.5,0,5.6,1.3,7.7,3.5c-0.3,0.9-0.6,1.8-0.9,2.7c-0.3,1,0.3,3.2,0,4.3c-2.6,9.2-5.5,17-9.4,25.5c-5.3,6.8-28.8,50.7-41.1,34.7
						c-1.1-5.7,0.4-10.4,3.2-14.9c1.6-2.5,4-4.7,5.6-6.4C202.4,224.3,211.9,211,217.7,205z"/>
				</g>
				<linearGradient id="SVGID_36_" gradientUnits="userSpaceOnUse" x1="213.0095" y1="247.9968" x2="206.6652" y2="303.6007">
					<stop  offset="0" style="stop-color:#A77EF7"/>
					<stop  offset="1" style="stop-color:#5E65D6"/>
				</linearGradient>
				<path class="st54" d="M191.6,270.6c0.9,7.8-1.5,15.4,0.9,22.5c0.1,0.7,0.2,3.6,0.3,4.4c1.6,9.2,21,18.5,37.2,9.7
					c0.1-1.1,0-2.3,0.1-4.4c-0.3-2,0.6-4.1,0.5-5.3c0-5-1.6-7.5-0.8-13.1c1.5-11.3,7.8-22.2,4.3-31.1c-0.7-1.9-2-2.8-3.5-4
					c-3.8-3.1-23.6-13.2-29.6-13.9C183.5,233.1,190.6,262.2,191.6,270.6z"/>
				<path class="st55" d="M231.5,276.1c2.2-8.3,5.2-16.2,2.6-22.9c-0.7-1.9-2-2.8-3.5-4c-3.8-3.1-3.3,5.2-9.3,4.5
					C220,264.8,225.5,274.8,231.5,276.1z"/>
				<g>
					<path class="st31" d="M219.3,231.9c-0.2,2.8-0.1,6.7,0.4,9.5c-5.7-0.2-13.6-1.7-14.4-5.9c0-0.5,0.1-1,0.1-1.5
						c-0.1-0.1-0.2-0.1-0.2-0.2c-2-1.4-5.4-2.4-7.6-4.8c-3.5-4-5.3-9.3-2.6-14.6c5-9.8,16.9-9.9,23.6-2c1.3,1.5,0.3,3.1,1.1,4.6
						c0.1,0.3,0.7,0.4,1.3,0.9c0.9,0.7,3.3,6.8,3.3,10c0,1.3-3,3.1-4.3,3.8C219.9,231.8,219.6,231.8,219.3,231.9z"/>
					<linearGradient id="SVGID_37_" gradientUnits="userSpaceOnUse" x1="213.3393" y1="231.8055" x2="211.3645" y2="236.7705">
						<stop  offset="0" style="stop-color:#FF8A78"/>
						<stop  offset="1" style="stop-color:#FFA799"/>
					</linearGradient>
					<path class="st56" d="M219.3,231.9c-0.2,2.8-0.1,6.7,0.4,9.5c-5.7-0.2-13.6-1.7-14.4-5.9c0-0.5,0.1-1,0.1-1.5
						c-0.1-0.1-0.2-0.1-0.2-0.2c-4.3-4,1.5-8.7,8.7-4.7C215.1,231.1,216.9,232,219.3,231.9z"/>
					<linearGradient id="SVGID_38_" gradientUnits="userSpaceOnUse" x1="220.0336" y1="217.9058" x2="217.1204" y2="223.4993">
						<stop  offset="0" style="stop-color:#FFB89E"/>
						<stop  offset="1" style="stop-color:#FFA799"/>
					</linearGradient>
					<path class="st57" d="M224.3,227.9c0,0.6-2.3,1.4-3.3,1.5c0.7-6-5.1-6.9-4.2-12.8c0.5-3.5-3.1-4.8-1.7-7.4
						c1.3,0.8,2.5,1.9,3.6,3.2c1.3,1.5,0.3,3.1,1.1,4.6c0.1,0.3,0.7,0.4,1.3,0.9C221.9,218.6,224.4,224.7,224.3,227.9z"/>
					<g>
						<path class="st58" d="M216.5,225.5c-0.1-1.3-0.7-1.6-1.1-1.3c-0.5,0.4-0.9,1.6-0.8,3c0.2,2.2,2.3,4.2,3.7,2.4
							c-1.6,0.8-2.3-1.2-2.4-2.6C215.9,226.1,216.1,225.3,216.5,225.5z"/>
						<path class="st59" d="M216,226.3c0.8,0.6,1.2,1.1,1.2,1.4c0,0.2-0.2,0.6-0.9,0.4C215.9,227.5,215.9,226.9,216,226.3z"/>
					</g>
					<path class="st60" d="M205.2,235.4c-1.7,0.5-3.2,2.2-2.9,3.4c1.7,6.8,14.2,8.4,22,6.7c0.1,0-2.9-4-4.4-4.5
						C214.9,241.5,206.7,239.4,205.2,235.4z"/>
					<g>
						<path class="st61" d="M204.6,235c-2.1-2.2-5.6-3.3-7.8-5.8c-2.2-2.5-4.7-6.4-3.2-10.4c-2.6-8.2,6.3-14.8,13.9-16.2
							c5.4-1.1,8.6,4.7,6.3,8.6c2,2.3,2,5.2,1.8,6c-0.4,2.3-0.4,2.6,0.4,4.4c0.6,1.4,2.1,4.7-0.6,2.6c-1.7-1.4-2.9,1.7-2.4,3.8
							c0.3,1,0.6,2.2,0.4,4.1C212.8,236.3,205.8,236.2,204.6,235z"/>
						<linearGradient id="SVGID_39_" gradientUnits="userSpaceOnUse" x1="213.861" y1="204.3013" x2="200.9955" y2="211.6699">
							<stop  offset="0" style="stop-color:#8A4791"/>
							<stop  offset="1" style="stop-color:#562E65"/>
						</linearGradient>
						<path class="st62" d="M196.1,215c-1.8-8,8.7-12,12.8-12.1c4.1-0.1,7.4,6.7,2.5,9C208,213.5,201.4,210.4,196.1,215z"/>
					</g>
				</g>
				<g>
					<linearGradient id="SVGID_40_" gradientUnits="userSpaceOnUse" x1="279.0705" y1="237.5088" x2="287.6918" y2="226.1196">
						<stop  offset="0" style="stop-color:#FF8A78"/>
						<stop  offset="1" style="stop-color:#FFA799"/>
					</linearGradient>
					<path class="st63" d="M279.2,226.2c-0.2,0.6-0.3,1-0.3,1.6c-0.4,1-0.6,1.8-0.8,2.4c-0.3,1.3-0.2,2.3-0.2,4c0,1,0.1,1.5,0.4,2.5
						c-1,2-2.6,3.2-4.1,4.8l4.8,3.7c2-1.3,3.6-2.7,5.3-3.9c1.4-0.6,1.9-0.9,2.3-1.3c1.1-1.2,4.4-4.6,4.6-5.9c0.2-1.5-0.2-5-0.5-6.9
						c-0.9-4.9-2.7-10-3-7.7c-0.5,0.5-0.1,4.9-0.4,5.6c-1.1,1.3-1.7,1.8-3.1,3.4c-0.9,0.5-1.5,1-1.9,1.1c-0.5,0.1-0.8-0.2-0.8-0.6
						c0-0.5,0.3-1.3,0.5-2.6c0-2.1-0.5-3.3-1.6-3.2c-0.6,0.1-0.9,0.4-1,1C279.2,224.7,279.3,225.4,279.2,226.2z"/>
					<linearGradient id="SVGID_41_" gradientUnits="userSpaceOnUse" x1="252.2226" y1="241.7358" x2="254.8337" y2="294.7085">
						<stop  offset="0" style="stop-color:#A77EF7"/>
						<stop  offset="1" style="stop-color:#5E65D6"/>
					</linearGradient>
					<path class="st64" d="M230.9,246.6c6.6,1,19.3,8.3,28.1,12.2c4.9-7,11.3-15.3,15.3-18.2c0.5-0.3,1.6-1,2-1.4
						c0.6-0.7,1.1-1.4,1.7-2.2c2.5,0.3,6.1,3.4,6,4.9c-0.4,0.7-0.8,1.5-1.2,2.3c-0.3,0.5-0.2,1.7-0.3,2.3
						c-1.3,4.9-8.8,16.2-12.2,21.2c-2,2.9-2.7,4.6-4.1,5.5c-2.2,1.4-5.1,0.6-10.7-0.8c-4.7-1.2-20-4-27-7.7
						c-4.9-2.6-8.7-7.3-6.8-12.7C222.9,248.7,226.7,246,230.9,246.6z"/>
				</g>
			</g>
		</g>
	</g>
</g>
</svg>
